<svg width="26" height="27" viewBox="0 0 26 27" fill="none" xmlns="http://www.w3.org/2000/svg">
<path d="M9.74894 11.25C10.9456 11.25 11.9156 10.2426 11.9156 9C11.9156 7.75736 10.9456 6.75 9.74894 6.75C8.55233 6.75 7.58228 7.75736 7.58228 9C7.58228 10.2426 8.55233 11.25 9.74894 11.25Z" stroke="white" style="stroke:white;stroke-opacity:1;" stroke-linecap="round" stroke-linejoin="round"/>
<path d="M14.0844 2.25H9.75106C4.33439 2.25 2.16772 4.5 2.16772 10.125V16.875C2.16772 22.5 4.33439 24.75 9.75106 24.75H16.2511C21.6677 24.75 23.8344 22.5 23.8344 16.875V11.25" stroke="white" style="stroke:white;stroke-opacity:1;" stroke-linecap="round" stroke-linejoin="round"/>
<path d="M20.7338 2.91422L16.8013 6.99797C16.6497 7.15547 16.498 7.45922 16.4763 7.68422L16.2597 9.24797C16.1838 9.81047 16.563 10.2042 17.1047 10.1255L18.6105 9.90047C18.8163 9.86672 19.1197 9.72047 19.2713 9.56297L23.2038 5.47922C23.8863 4.77047 24.2005 3.96047 23.2038 2.92547C22.1963 1.86797 21.4163 2.20547 20.7338 2.91422Z" stroke="white" style="stroke:white;stroke-opacity:1;" stroke-miterlimit="10" stroke-linecap="round" stroke-linejoin="round"/>
<path d="M20.1729 3.49805C20.5087 4.73555 21.4404 5.70305 22.632 6.0518" stroke="white" style="stroke:white;stroke-opacity:1;" stroke-miterlimit="10" stroke-linecap="round" stroke-linejoin="round"/>
<path d="M2.89136 21.3177L8.23219 17.5939C9.08802 16.9977 10.323 17.0652 11.0922 17.7514L11.4497 18.0777C12.2947 18.8314 13.6597 18.8314 14.5047 18.0777L19.0114 14.0614C19.8564 13.3077 21.2214 13.3077 22.0664 14.0614L23.8322 15.6364" stroke="white" style="stroke:white;stroke-opacity:1;" stroke-linecap="round" stroke-linejoin="round"/>
</svg>
