<svg width="34" height="35" viewBox="0 0 34 35" fill="none" xmlns="http://www.w3.org/2000/svg">
<path d="M13.457 19.689C13.457 21.0631 14.5196 22.1681 15.8229 22.1681H18.4862C19.6195 22.1681 20.5404 21.2048 20.5404 20.0006C20.5404 18.7115 19.9737 18.244 19.1379 17.9465L14.8737 16.459C14.0379 16.1615 13.4712 15.7081 13.4712 14.4048C13.4712 13.2148 14.392 12.2373 15.5254 12.2373H18.1887C19.492 12.2373 20.5545 13.3423 20.5545 14.7165" stroke="#171717" style="stroke:#171717;stroke:color(display-p3 0.0902 0.0902 0.0902);stroke-opacity:1;" stroke-width="1.5" stroke-linecap="round" stroke-linejoin="round"/>
<path d="M16.998 10.8345V23.5845" stroke="#171717" style="stroke:#171717;stroke:color(display-p3 0.0902 0.0902 0.0902);stroke-opacity:1;" stroke-width="1.5" stroke-linecap="round" stroke-linejoin="round"/>
<path d="M31.1673 17.2096C31.1673 25.0296 24.8207 31.3763 17.0007 31.3763C9.18065 31.3763 2.83398 25.0296 2.83398 17.2096C2.83398 9.38964 9.18065 3.04297 17.0007 3.04297" stroke="#171717" style="stroke:#171717;stroke:color(display-p3 0.0902 0.0902 0.0902);stroke-opacity:1;" stroke-width="1.5" stroke-linecap="round" stroke-linejoin="round"/>
<path d="M31.1667 8.70964V3.04297H25.5" stroke="#171717" style="stroke:#171717;stroke:color(display-p3 0.0902 0.0902 0.0902);stroke-opacity:1;" stroke-width="1.5" stroke-linecap="round" stroke-linejoin="round"/>
<path d="M24.084 10.1263L31.1673 3.04297" stroke="#171717" style="stroke:#171717;stroke:color(display-p3 0.0902 0.0902 0.0902);stroke-opacity:1;" stroke-width="1.5" stroke-linecap="round" stroke-linejoin="round"/>
</svg>
