<svg width="21" height="20" viewBox="0 0 21 20" fill="none" xmlns="http://www.w3.org/2000/svg">
<path d="M20.8624 10.2281C20.8633 9.54663 20.8024 8.8664 20.6803 8.19482H10.7097V12.046H16.4204C16.3035 12.6611 16.0562 13.2475 15.6933 13.7697C15.3304 14.292 14.8594 14.7393 14.3088 15.0848V17.5846H17.717C19.7126 15.8444 20.8624 13.271 20.8624 10.2281Z" fill="#4285F4" style="fill:#4285F4;fill:color(display-p3 0.2588 0.5216 0.9569);fill-opacity:1;"/>
<path d="M10.7095 20C13.5627 20 15.965 19.1139 17.7169 17.5862L14.3086 15.0864C13.36 15.6947 12.1383 16.0419 10.7095 16.0419C7.95185 16.0419 5.61118 14.2836 4.77418 11.9143H1.26318V14.4906C2.14316 16.1467 3.49251 17.5389 5.16058 18.5118C6.82866 19.4847 8.74981 19.9999 10.7095 20Z" fill="#34A853" style="fill:#34A853;fill:color(display-p3 0.2039 0.6588 0.3255);fill-opacity:1;"/>
<path d="M4.77425 11.914C4.33176 10.6724 4.33176 9.32793 4.77425 8.08639V5.51013H1.26325C0.522982 6.90333 0.137451 8.44096 0.137451 10.0002C0.137451 11.5594 0.522982 13.097 1.26325 14.4902L4.77425 11.914Z" fill="#FBBC04" style="fill:#FBBC04;fill:color(display-p3 0.9843 0.7373 0.0157);fill-opacity:1;"/>
<path d="M10.7095 3.95879C12.2173 3.93549 13.6742 4.47429 14.7653 5.45872L17.7829 2.60469C15.8695 0.904883 13.3345 -0.0283412 10.7095 0.000656061C8.74981 0.000740536 6.82866 0.515984 5.16058 1.48886C3.49251 2.46174 2.14316 3.85397 1.26318 5.5101L4.77418 8.08636C5.61118 5.71704 7.95185 3.95879 10.7095 3.95879Z" fill="#EA4335" style="fill:#EA4335;fill:color(display-p3 0.9176 0.2627 0.2078);fill-opacity:1;"/>
</svg>
