<svg width="31" height="31" viewBox="0 0 31 31" fill="none" xmlns="http://www.w3.org/2000/svg">
<g clip-path="url(#clip0_2136_3819)">
<path d="M14.1697 2.58398H11.5863C5.12801 2.58398 2.54468 5.16732 2.54468 11.6257V19.3757C2.54468 25.834 5.12801 28.4173 11.5863 28.4173H19.3363C25.7947 28.4173 28.378 25.834 28.378 19.3757V16.7923" stroke="#FFBD59" style="stroke:#FFBD59;stroke:color(display-p3 1.0000 0.7412 0.3490);stroke-opacity:1;" stroke-width="1.5" stroke-linecap="round" stroke-linejoin="round"/>
<path d="M28.2617 4.59927C26.6729 8.56469 22.6817 13.9639 19.3492 16.6376L17.3084 18.2651C17.05 18.4589 16.7917 18.6139 16.4946 18.7301C16.4946 18.5364 16.4817 18.3426 16.4559 18.1359C16.3396 17.2705 15.9521 16.4568 15.2546 15.7722C14.5442 15.0618 13.6917 14.6614 12.8134 14.5451C12.6067 14.5322 12.4 14.5193 12.1934 14.5322C12.3096 14.2093 12.4775 13.9122 12.6971 13.6668L14.3246 11.6259C16.9984 8.29344 22.4104 4.27635 26.3629 2.6876C26.97 2.4551 27.5642 2.63594 27.9388 3.01052C28.3263 3.39802 28.5071 3.99219 28.2617 4.59927Z" stroke="#FFBD59" style="stroke:#FFBD59;stroke:color(display-p3 1.0000 0.7412 0.3490);stroke-opacity:1;" stroke-width="1.5" stroke-linecap="round" stroke-linejoin="round"/>
<path d="M16.5075 18.7169C16.5075 19.8536 16.0684 20.9386 15.2546 21.7653C14.6217 22.3982 13.7692 22.8374 12.7488 22.9665L10.2042 23.2378C8.82212 23.3928 7.63379 22.2174 7.78879 20.8094L8.06004 18.2649C8.30546 16.0044 10.1913 14.5578 12.2063 14.519C12.413 14.5061 12.6196 14.519 12.8263 14.5319C13.7046 14.6482 14.5571 15.0486 15.2675 15.759C15.965 16.4565 16.3525 17.2574 16.4688 18.1228C16.4946 18.3294 16.5075 18.5361 16.5075 18.7169Z" stroke="#FFBD59" style="stroke:#FFBD59;stroke:color(display-p3 1.0000 0.7412 0.3490);stroke-opacity:1;" stroke-width="1.5" stroke-linecap="round" stroke-linejoin="round"/>
<path d="M20.4342 15.4735C20.4342 12.774 18.2513 10.5781 15.5388 10.5781" stroke="#FFBD59" style="stroke:#FFBD59;stroke:color(display-p3 1.0000 0.7412 0.3490);stroke-opacity:1;" stroke-width="1.5" stroke-linecap="round" stroke-linejoin="round"/>
</g>
<defs>
<clipPath id="clip0_2136_3819">
<rect width="31" height="31" fill="white" style="fill:white;fill-opacity:1;"/>
</clipPath>
</defs>
</svg>
